<svg version="1.1" xmlns="http://www.w3.org/2000/svg" xmlns:xlink="http://www.w3.org/1999/xlink" xmlns:i="http://ns.adobe.com/AdobeIllustrator/10.0/" xmlns:sketch="http://www.bohemiancoding.com/sketch/ns" x="0px" y="0px" viewBox="0 0 475 110" xml:space="preserve" preserveAspectRatio="xMidYMid meet" class="">
<!-- 	<rect x="0px" y="0px" width="100%" height="100%" fill="#fff"></rect> -->
	<g class="logo-container-box logoContainerBox" transform="scale(1) translate(0,0.0000152587890625)">
		<g class="containerBody" transform="scale(1) translate(0, 0)">
			<g class="sampleIconBox" transform="scale(1) translate(0,0)">
				<g class="sampleIcons_1" transform="scale(1.1106915587034791) translate(0,0)" fill="#f75e91">
					<path d="M95.017,36.21v14.807c0,1.658-1.342,3-3,3H91.29v24.914c0,1.848-1.498,3.346-3.346,3.346h-3.979v5.051  c0,3.236-2.625,5.861-5.859,5.861c-3.236,0-5.861-2.625-5.861-5.861v-5.051H28.204v5.051c0,3.236-2.625,5.861-5.859,5.861  c-3.236,0-5.861-2.625-5.861-5.861v-5.051h-4.098c-1.85,0-3.346-1.498-3.346-3.346V54.018H7.983c-1.658,0-3-1.342-3-3V36.21  c0-1.657,1.342-3,3-3H9.04V10.156c0-1.848,1.496-3.346,3.346-3.346h75.559c1.848,0,3.346,1.498,3.346,3.346V33.21h0.727  C93.675,33.21,95.017,34.553,95.017,36.21z M22.345,59.971c-2.867,0-5.191,2.322-5.191,5.189c0,2.865,2.324,5.189,5.191,5.189  c2.865,0,5.189-2.324,5.189-5.189C27.534,62.293,25.21,59.971,22.345,59.971z M78.106,59.971c-2.867,0-5.189,2.322-5.189,5.189  c0,2.865,2.322,5.189,5.189,5.189s5.189-2.324,5.189-5.189C83.296,62.293,80.974,59.971,78.106,59.971z M89.144,18.533H11.173  v35.485h77.971V18.533z M80,12.042c0-1.657-1.028-3-2.297-3h-55.09c-1.268,0-2.296,1.343-2.296,3v1.242c0,1.657,1.029,3,2.296,3  h55.09c1.269,0,2.297-1.343,2.297-3V12.042z"></path>
				</g>
			</g>
			<g class="sampleTexts_1" transform="scale(1) translate(-15.000009155273431815658,26.59999656677246)">
				<g class="logo--name svgLogoName_1 logoNameBox" transform="scale(1) translate(136,53)" fill="#873381">
					<path d="M19.01 0L19.01-48.46L1.58-48.46L1.58-51.48L39.89-51.48L39.89-48.46L22.46-48.46L22.46 0L19.01 0ZM56.12-6.84L56.12-6.84L56.12-6.84Q48.95-14.54 48.95-25.78L48.95-25.78L48.95-25.78Q48.95-37.01 56.12-44.68L56.12-44.68L56.12-44.68Q63.28-52.34 74.22-52.34L74.22-52.34L74.22-52.34Q85.17-52.34 92.37-44.68L92.37-44.68L92.37-44.68Q99.57-37.01 99.57-25.78L99.57-25.78L99.57-25.78Q99.57-14.54 92.37-6.84L92.37-6.84L92.37-6.84Q85.17 0.86 74.22 0.86L74.22 0.86L74.22 0.86Q63.28 0.86 56.12-6.84ZM58.67-42.44L58.67-42.44L58.67-42.44Q52.70-35.71 52.70-25.78L52.70-25.78L52.70-25.78Q52.70-15.84 58.71-9.07L58.71-9.07L58.71-9.07Q64.72-2.30 74.26-2.30L74.26-2.30L74.26-2.30Q83.80-2.30 89.81-9.07L89.81-9.07L89.81-9.07Q95.82-15.84 95.82-25.78L95.82-25.78L95.82-25.78Q95.82-35.71 89.81-42.44L89.81-42.44L89.81-42.44Q83.80-49.18 74.22-49.18L74.22-49.18L74.22-49.18Q64.65-49.18 58.67-42.44ZM151.26-5.00L151.26-5.00L151.26-5.00Q146.29 0.86 136.14 0.86L136.14 0.86L136.14 0.86Q125.98 0.86 120.98-5.04L120.98-5.04L120.98-5.04Q115.98-10.94 115.98-21.17L115.98-21.17L115.98-51.48L119.43-51.48L119.43-21.17L119.43-21.17Q119.43-2.16 136.10-2.16L136.10-2.16L136.10-2.16Q152.77-2.16 152.77-21.17L152.77-21.17L152.77-51.48L156.22-51.48L156.22-21.17L156.22-21.17Q156.22-10.87 151.26-5.00ZM179.11 0L175.66 0L175.66-51.26L175.66-51.26Q182.50-51.77 187.10-51.77L187.10-51.77L187.10-51.77Q194.45-51.77 199.20-47.99L199.20-47.99L199.20-47.99Q203.95-44.21 203.95-37.30L203.95-37.30L203.95-37.30Q203.95-32.62 201.22-28.58L201.22-28.58L201.22-28.58Q198.48-24.55 195.10-22.18L195.10-22.18L195.10-22.18Q197.76-18.50 201.68-13.43L201.68-13.43L201.68-13.43Q205.61-8.35 206.76-7.06L206.76-7.06L206.76-7.06Q211.15-2.38 216.70-1.73L216.70-1.73L216.62 0.58L216.62 0.58Q212.23 0.50 209.50-0.76L209.50-0.76L209.50-0.76Q206.76-2.02 204.28-4.61L204.28-4.61L204.28-4.61Q201.79-7.20 191.93-20.74L191.93-20.74L191.93-20.74Q184.87-20.74 179.11-21.17L179.11-21.17L179.11 0ZM189.84-23.62L189.84-23.62L189.84-23.62Q193.01-23.62 196.61-27.79L196.61-27.79L196.61-27.79Q200.21-31.97 200.21-37.48L200.21-37.48L200.21-37.48Q200.21-42.98 196.50-45.83L196.50-45.83L196.50-45.83Q192.79-48.67 186.67-48.67L186.67-48.67L186.67-48.67Q183.43-48.67 179.11-48.38L179.11-48.38L179.11-23.98L179.11-23.98Q184.87-23.62 189.84-23.62ZM251.18 0L224.03 0L224.03-51.48L227.49-51.48L227.49-3.17L251.18-3.17L251.18 0ZM266.72 0L263.26 0L263.26-51.48L266.72-51.48L266.72 0ZM289.97-44.86L290.04-43.27L290.18-37.15L290.18 0L286.73 0L286.73-51.91L288.31-51.91L322.22-12.82L322.22-12.82Q325.68-8.71 327.55-6.26L327.55-6.26L327.55-6.26Q327.26-9.72 327.26-14.18L327.26-14.18L327.26-51.48L330.72-51.48L330.72 0.43L329.14 0.43L294.58-39.38L294.58-39.38Q290.98-43.49 289.97-44.86L289.97-44.86Z"></path>
				</g>
				<g id="" class="logo--name svgSloganText_1 sloganBox" transform="scale(1) translate(198.4,254.4)" fill="">
					<path d=""></path>
				</g>
			</g>
		</g>
	</g>
</svg>